<?xml version="1.0" encoding="UTF-8" standalone="no"?>
<!-- Created with Inkscape (http://www.inkscape.org/) -->

<svg
   xmlns:dc="http://purl.org/dc/elements/1.1/"
   xmlns:cc="http://creativecommons.org/ns#"
   xmlns:rdf="http://www.w3.org/1999/02/22-rdf-syntax-ns#"
   xmlns:svg="http://www.w3.org/2000/svg"
   xmlns="http://www.w3.org/2000/svg"
   xmlns:sodipodi="http://sodipodi.sourceforge.net/DTD/sodipodi-0.dtd"
   xmlns:inkscape="http://www.inkscape.org/namespaces/inkscape"
   id="svg2985"
   version="1.1"
   inkscape:version="0.48.5 r10040"
   width="1000"
   height="182.95464"
   xml:space="preserve"
   sodipodi:docname="A.svg"><metadata
     id="metadata2991"><rdf:RDF><cc:Work
         rdf:about=""><dc:format>image/svg+xml</dc:format><dc:type
           rdf:resource="http://purl.org/dc/dcmitype/StillImage" /><dc:title></dc:title></cc:Work></rdf:RDF></metadata><defs
     id="defs2989"><clipPath
       clipPathUnits="userSpaceOnUse"
       id="clipPath2999"><path
         d="m 0,0 841.89,0 0,595.276 L 0,595.276 0,0 z"
         id="path3001"
         inkscape:connector-curvature="0" /></clipPath><clipPath
       clipPathUnits="userSpaceOnUse"
       id="clipPath3007"><path
         d="m 18.2,22.0378 233.345,0 0,-11.6 -233.345,0 0,11.6 z"
         id="path3009"
         inkscape:connector-curvature="0" /></clipPath><clipPath
       clipPathUnits="userSpaceOnUse"
       id="clipPath3031"><path
         d="m 0,0 841.89,0 0,595.276 L 0,595.276 0,0 z"
         id="path3033"
         inkscape:connector-curvature="0" /></clipPath><clipPath
       clipPathUnits="userSpaceOnUse"
       id="clipPath3063"><path
         d="m 0,0 841.89,0 0,595.276 L 0,595.276 0,0 z"
         id="path3065"
         inkscape:connector-curvature="0" /></clipPath><clipPath
       clipPathUnits="userSpaceOnUse"
       id="clipPath4567"><path
         inkscape:connector-curvature="0"
         d="m 0,0 595.276,0 0,841.89 L 0,841.89 0,0 z"
         id="path4569" /></clipPath><clipPath
       clipPathUnits="userSpaceOnUse"
       id="clipPath4539"><path
         inkscape:connector-curvature="0"
         d="m 0,0 595.276,0 0,841.89 L 0,841.89 0,0 z"
         id="path4541" /></clipPath><clipPath
       clipPathUnits="userSpaceOnUse"
       id="clipPath4515"><path
         inkscape:connector-curvature="0"
         d="m 0,0 595.276,0 0,841.89 L 0,841.89 0,0 z"
         id="path4517" /></clipPath><clipPath
       clipPathUnits="userSpaceOnUse"
       id="clipPath4487"><path
         inkscape:connector-curvature="0"
         d="m 0,0 595.276,0 0,841.89 L 0,841.89 0,0 z"
         id="path4489" /></clipPath><clipPath
       clipPathUnits="userSpaceOnUse"
       id="clipPath4864"><path
         inkscape:connector-curvature="0"
         d="m 35.497,732.183 142.313,0 0,23.582 -142.313,0 0,-23.582 z"
         id="path4866" /></clipPath><clipPath
       clipPathUnits="userSpaceOnUse"
       id="clipPath5732"><path
         inkscape:connector-curvature="0"
         d="m 75.598,97.002 445.137,0 0,527.998 -445.137,0 0,-527.998 z"
         id="path5734" /></clipPath><clipPath
       clipPathUnits="userSpaceOnUse"
       id="clipPath5698"><path
         inkscape:connector-curvature="0"
         d="m 75.598,97.002 445.137,0 0,527.998 -445.137,0 0,-527.998 z"
         id="path5700" /></clipPath></defs><sodipodi:namedview
     pagecolor="#ffffff"
     bordercolor="#666666"
     borderopacity="1"
     objecttolerance="10"
     gridtolerance="10"
     guidetolerance="10"
     inkscape:pageopacity="0"
     inkscape:pageshadow="2"
     inkscape:window-width="1054"
     inkscape:window-height="1030"
     id="namedview2987"
     showgrid="false"
     fit-margin-left="0.5"
     fit-margin-bottom="0.5"
     fit-margin-top="0.5"
     fit-margin-right="0.5"
     inkscape:zoom="0.36403144"
     inkscape:cx="657.31505"
     inkscape:cy="-260.90311"
     inkscape:window-x="861"
     inkscape:window-y="-13"
     inkscape:window-maximized="0"
     inkscape:current-layer="g2993" /><g
     id="g2993"
     inkscape:groupmode="layer"
     inkscape:label="Ticketek_Brand_Guidelines_2014"
     transform="matrix(1.25,0,0,-1.25,-959.74293,668.49408)"><g
       id="g2995"><g
         id="g2997"
         clip-path="url(#clipPath2999)"><g
           id="g3003"><g
             id="g3005" /><g
             id="g3011"><g
               clip-path="url(#clipPath3007)"
               id="g3013"
               style="opacity:0.5" /></g></g></g></g><g
       id="g5678"
       transform="matrix(1.974843,0,0,1.974843,837.69302,445.23505)"><path
         d="m 0,0 c -0.125,-9.554 -1.621,-16.702 -4.487,-21.446 -2.866,-4.743 -7.136,-7.115 -12.804,-7.115 -6.172,0 -10.697,2.822 -13.579,8.465 -2.883,5.643 -4.322,14.55 -4.322,26.722 0,12.889 1.556,22.532 4.675,28.928 3.117,6.396 7.822,9.594 14.119,9.594 5.419,0 9.545,-2.127 12.381,-6.379 2.835,-4.253 4.252,-10.437 4.252,-18.55 l 0,-1.619 -12.874,0 0,3.287 c 0,4.744 -0.305,8.023 -0.916,9.84 -0.611,1.815 -1.621,2.723 -3.032,2.723 -1.942,0 -3.281,-1.84 -4.016,-5.521 -0.736,-3.679 -1.104,-11.409 -1.104,-23.186 0,-8.9 0.375,-14.813 1.127,-17.743 0.752,-2.927 2.115,-4.39 4.088,-4.39 1.692,0 2.929,1.234 3.712,3.704 0.782,2.471 1.175,6.372 1.175,11.705 L -11.605,0 0,0 z"
         style="fill:#c51c6e;fill-opacity:1;fill-rule:nonzero;stroke:none"
         id="path5680"
         inkscape:connector-curvature="0" /></g><g
       id="g5682"
       transform="matrix(1.974843,0,0,1.974843,836.39002,461.5186)"><path
         d="m 0,0 c 0,13.02 1.496,22.409 4.488,28.168 2.991,5.757 7.822,8.637 14.495,8.637 6.454,0 11.16,-2.92 14.121,-8.76 2.96,-5.84 4.439,-15.188 4.439,-28.045 0,-12.891 -1.464,-22.248 -4.393,-28.072 -2.928,-5.824 -7.619,-8.734 -14.073,-8.734 -6.705,0 -11.559,2.886 -14.566,8.66 C 1.503,-22.371 0,-12.99 0,0 m 18.983,-24.931 c 1.754,0 2.991,1.596 3.712,4.785 0.722,3.19 1.082,9.07 1.082,17.643 0,11.811 -0.353,19.401 -1.058,22.77 -0.705,3.369 -1.982,5.054 -3.83,5.054 -1.943,0 -3.282,-1.505 -4.018,-4.515 -0.735,-3.009 -1.104,-10.109 -1.104,-21.298 0,-10.272 0.376,-16.915 1.128,-19.923 0.751,-3.01 2.114,-4.516 4.088,-4.516"
         style="fill:#c51c6e;fill-opacity:1;fill-rule:nonzero;stroke:none"
         id="path5684"
         inkscape:connector-curvature="0" /></g><g
       id="g5686"
       transform="matrix(1.974843,0,0,1.974843,908.20973,433.5096)"><path
         d="m 0,0 11.935,0 c -0.032,-0.361 -0.055,-0.728 -0.071,-1.105 -0.015,-0.376 -0.023,-0.94 -0.023,-1.692 0,-2.88 0.439,-5.04 1.315,-6.479 0.878,-1.439 2.21,-2.16 3.994,-2.16 1.535,0 2.765,0.59 3.689,1.767 0.924,1.179 1.386,2.765 1.386,4.76 0,1.735 -0.415,3.355 -1.245,4.86 -0.83,1.505 -2.561,3.533 -5.192,6.085 -0.564,0.556 -1.425,1.374 -2.585,2.454 -3.758,3.5 -6.452,6.427 -8.081,8.783 -1.441,2.095 -2.53,4.336 -3.266,6.724 -0.736,2.388 -1.104,4.842 -1.104,7.361 0,5.725 1.606,10.428 4.817,14.109 3.21,3.68 7.29,5.52 12.239,5.52 4.918,0 8.795,-1.749 11.63,-5.25 2.834,-3.501 4.252,-8.327 4.252,-14.477 0,-0.229 -0.016,-0.589 -0.047,-1.079 -0.032,-0.491 -0.047,-0.867 -0.047,-1.129 l -11.511,0 c 0.062,0.916 0.101,1.587 0.117,2.011 0.015,0.427 0.023,0.835 0.023,1.227 0,2.421 -0.43,4.277 -1.292,5.571 -0.861,1.292 -2.091,1.938 -3.689,1.938 -1.347,0 -2.49,-0.581 -3.43,-1.743 -0.94,-1.161 -1.409,-2.592 -1.409,-4.294 0,-1.569 0.406,-3.099 1.221,-4.587 0.815,-1.49 2.177,-3.133 4.088,-4.932 0.971,-0.949 2.35,-2.225 4.135,-3.829 3.415,-3.173 5.623,-5.413 6.625,-6.723 2.162,-2.781 3.728,-5.479 4.699,-8.097 0.972,-2.617 1.456,-5.382 1.456,-8.294 0,-6.052 -1.636,-10.885 -4.91,-14.502 -3.272,-3.614 -7.666,-5.421 -13.18,-5.421 -5.512,0 -9.647,1.888 -12.403,5.667 C 1.379,-13.177 0,-7.526 0,0"
         style="fill:#c51c6e;fill-opacity:1;fill-rule:nonzero;stroke:none"
         id="path5688"
         inkscape:connector-curvature="0" /></g><g
       id="g5690"
       transform="matrix(1.974843,0,0,1.974843,976.96725,391.44722)"><path
         inkscape:connector-curvature="0"
         d="m 0,0 0,70.962 17.056,0 5.639,-34.499 5.778,34.499 17.245,0 0,-70.962 -11.841,0 0,50.449 L 25.325,0 17.996,0 9.82,50.449 9.82,0 0,0 z"
         style="fill:#c51c6e;fill-opacity:1;fill-rule:nonzero;stroke:none"
         id="path5692" /></g><g
       transform="matrix(1.974843,0,0,1.974843,565.80533,-699.88141)"
       id="g5694"><g
         id="g5696"
         clip-path="url(#clipPath5698)"><g
           id="g5702"
           transform="translate(254.574,588.0974)"><path
             inkscape:connector-curvature="0"
             d="m 0,0 c 0,13.02 1.496,22.409 4.488,28.168 2.991,5.757 7.823,8.637 14.495,8.637 6.453,0 11.159,-2.92 14.119,-8.76 2.96,-5.84 4.441,-15.188 4.441,-28.045 0,-12.891 -1.465,-22.248 -4.393,-28.072 -2.929,-5.824 -7.621,-8.734 -14.073,-8.734 -6.703,0 -11.559,2.886 -14.566,8.66 C 1.503,-22.371 0,-12.99 0,0 m 18.983,-24.931 c 1.754,0 2.992,1.596 3.712,4.785 0.72,3.19 1.08,9.07 1.08,17.643 0,11.811 -0.351,19.401 -1.056,22.77 -0.705,3.369 -1.982,5.054 -3.83,5.054 -1.943,0 -3.282,-1.505 -4.017,-4.515 -0.736,-3.009 -1.105,-10.109 -1.105,-21.298 0,-10.272 0.376,-16.915 1.128,-19.923 0.751,-3.01 2.114,-4.516 4.088,-4.516"
             style="fill:#c51c6e;fill-opacity:1;fill-rule:nonzero;stroke:none"
             id="path5704" /></g><g
           id="g5706"
           transform="translate(292.7729,552.6154)"><path
             inkscape:connector-curvature="0"
             d="m 0,0 0,70.962 15.882,0 c 6.609,0 11.488,-1.767 14.637,-5.301 3.148,-3.533 4.721,-8.996 4.721,-16.389 0,-7.198 -1.551,-12.481 -4.651,-15.852 -3.101,-3.369 -7.94,-5.054 -14.519,-5.054 -0.784,0 -1.386,0.008 -1.808,0.024 -0.424,0.016 -0.808,0.024 -1.152,0.024 L 13.11,0 0,0 z m 15.788,59.38 -2.584,0 0,-19.481 0.845,0 c 2.85,0 4.911,0.792 6.179,2.38 1.27,1.586 1.904,4.147 1.904,7.68 0,3.239 -0.509,5.617 -1.528,7.139 -1.018,1.522 -2.623,2.282 -4.816,2.282"
             style="fill:#c51c6e;fill-opacity:1;fill-rule:nonzero;stroke:none"
             id="path5708" /></g><g
           id="g5710"
           transform="translate(327.2806,588.0974)"><path
             inkscape:connector-curvature="0"
             d="m 0,0 c 0,13.02 1.496,22.409 4.487,28.168 2.992,5.757 7.825,8.637 14.496,8.637 6.454,0 11.16,-2.92 14.119,-8.76 2.961,-5.84 4.441,-15.188 4.441,-28.045 0,-12.891 -1.465,-22.248 -4.393,-28.072 -2.929,-5.824 -7.62,-8.734 -14.072,-8.734 -6.703,0 -11.559,2.886 -14.567,8.66 C 1.505,-22.371 0,-12.99 0,0 m 18.983,-24.931 c 1.754,0 2.992,1.596 3.712,4.785 0.72,3.19 1.081,9.07 1.081,17.643 0,11.811 -0.352,19.401 -1.057,22.77 -0.705,3.369 -1.982,5.054 -3.829,5.054 -1.943,0 -3.283,-1.505 -4.018,-4.515 -0.736,-3.009 -1.105,-10.109 -1.105,-21.298 0,-10.272 0.377,-16.915 1.128,-19.923 0.752,-3.01 2.115,-4.516 4.088,-4.516"
             style="fill:#c51c6e;fill-opacity:1;fill-rule:nonzero;stroke:none"
             id="path5712" /></g></g></g><g
       id="g5714"
       transform="matrix(1.974843,0,0,1.974843,1287.5714,391.44722)"><path
         inkscape:connector-curvature="0"
         d="m 0,0 0,70.962 13.11,0 0,-59.282 16.351,0 L 29.461,0 0,0 z"
         style="fill:#c51c6e;fill-opacity:1;fill-rule:nonzero;stroke:none"
         id="path5716" /></g><path
       inkscape:connector-curvature="0"
       d="m 1348.6606,531.58524 25.8883,0 0,-140.13881 -25.8883,0 0,140.13881 z"
       style="fill:#c51c6e;fill-opacity:1;fill-rule:nonzero;stroke:none"
       id="path5718" /><g
       id="g5720"
       transform="matrix(1.974843,0,0,1.974843,1377.1323,508.51947)"><path
         inkscape:connector-curvature="0"
         d="m 0,0 0,11.68 34.065,0 0,-11.68 -10.477,0 0,-59.282 -13.063,0 L 10.525,0 0,0 z"
         style="fill:#c51c6e;fill-opacity:1;fill-rule:nonzero;stroke:none"
         id="path5722" /></g><g
       id="g5724"
       transform="matrix(1.974843,0,0,1.974843,1429.6495,391.44722)"><path
         inkscape:connector-curvature="0"
         d="m 0,0 9.634,70.962 17.432,0 L 35.805,0 24.058,0 l -1.926,15.164 -9.727,0 L 10.714,0 0,0 z m 13.674,26.844 7.142,0 L 17.245,58.3 13.674,26.844 z"
         style="fill:#c51c6e;fill-opacity:1;fill-rule:nonzero;stroke:none"
         id="path5726" /></g><g
       transform="matrix(1.974843,0,0,1.974843,565.80533,-699.88141)"
       id="g5728"><g
         id="g5730"
         clip-path="url(#clipPath5732)"><g
           id="g5736"
           transform="translate(472.92,552.6154)"><path
             inkscape:connector-curvature="0"
             d="m 0,0 0,70.962 12.029,0 8.174,-24.93 c 1.035,-3.205 1.81,-5.847 2.327,-7.925 0.516,-2.077 0.9,-4.016 1.151,-5.815 l 0,38.67 10.573,0 0,-70.962 -10.196,0 -9.351,27.433 c -1.128,3.271 -2.005,6.003 -2.633,8.196 -0.625,2.191 -1.127,4.252 -1.503,6.183 L 10.571,0 0,0 z"
             style="fill:#c51c6e;fill-opacity:1;fill-rule:nonzero;stroke:none"
             id="path5738" /></g></g></g></g></svg>