<?xml version="1.0" encoding="UTF-8" standalone="no"?>
<!-- Created with Inkscape (http://www.inkscape.org/) -->
<svg xmlns:dc="http://purl.org/dc/elements/1.1/" xmlns:cc="http://creativecommons.org/ns#" xmlns:rdf="http://www.w3.org/1999/02/22-rdf-syntax-ns#" xmlns:svg="http://www.w3.org/2000/svg" xmlns="http://www.w3.org/2000/svg" version="1.1" width="140" height="31" viewBox="0 0 140 30.999999" id="Layer_1" xml:space="preserve"><metadata id="metadata31"><rdf:RDF><cc:Work rdf:about=""><dc:format>image/svg+xml</dc:format><dc:type rdf:resource="http://purl.org/dc/dcmitype/StillImage"/><dc:title/></cc:Work></rdf:RDF></metadata><defs id="defs29"/>
<g transform="matrix(0.20806551,0,0,0.20967764,-29.928767,-43.116224)" id="g3">
	<path d="m 143.843,215.977 h 37.847 c 28.588,0 52.142,22.463 52.142,51.324 0,28.862 -23.689,51.325 -52.142,51.325 H 143.843 V 215.977 z m 26.683,80.049 h 5.99 c 15.928,0 29.542,-8.713 29.542,-28.726 0,-18.378 -12.117,-28.725 -29.269,-28.725 h -6.263 v 57.451 z" id="path5" style="fill:#222222"/>
	<path d="m 264.182,221.966 c 0,7.625 -6.262,13.887 -13.887,13.887 -7.623,0 -13.886,-6.262 -13.886,-13.887 0,-7.623 6.263,-13.886 13.886,-13.886 7.625,10e-4 13.887,6.263 13.887,13.886 z m -1.497,96.659 h -24.778 v -69.838 h 24.778 v 69.838 z" id="path7" style="fill:#222222"/>
	<path d="m 346.974,311.818 c 0,29.679 -14.703,41.658 -40.433,41.658 -16.064,0 -37.574,-8.305 -39.752,-26.684 h 27.771 c 0.682,2.45 2.452,4.22 4.63,5.31 2.178,1.089 4.765,1.634 7.078,1.634 13.342,0 15.929,-8.712 15.929,-20.013 v -3.268 c -6.398,6.399 -12.934,9.53 -22.19,9.53 -20.421,0 -34.443,-15.521 -34.443,-35.669 0,-20.42 14.431,-37.846 35.804,-37.846 8.168,0 15.656,2.724 20.557,9.667 h 0.272 v -7.352 h 24.777 v 63.033 z m -55.816,-28.589 c 0,8.851 5.853,15.656 15.927,15.656 10.074,0 15.929,-6.806 15.929,-15.656 0,-8.576 -5.855,-15.791 -15.929,-15.791 -10.074,0 -15.927,7.215 -15.927,15.791 z" id="path9" style="fill:#222222"/>
	<path d="m 379.446,221.966 c 0,7.625 -6.262,13.887 -13.887,13.887 -7.623,0 -13.886,-6.262 -13.886,-13.887 0,-7.623 6.263,-13.886 13.886,-13.886 7.625,10e-4 13.887,6.263 13.887,13.886 z m -1.497,96.659 h -24.777 v -69.838 h 24.777 v 69.838 z" id="path11" style="fill:#222222"/>
	<path d="M 417.697,318.625 H 392.92 v -49.418 h -8.032 v -20.42 h 8.032 v -20.965 h 24.777 v 20.965 h 14.022 v 20.42 h -14.022 v 49.418 z" id="path13" style="fill:#222222"/>
	<path d="M 507.298,318.625 H 482.52 v -7.76 h -0.271 c -4.356,6.943 -12.934,10.074 -21.103,10.074 -20.692,0 -35.259,-17.289 -35.259,-37.301 0,-20.014 14.294,-37.167 34.987,-37.167 8.033,0 16.473,2.996 21.646,9.121 v -6.806 h 24.778 v 69.839 z M 451.48,283.773 c 0,8.849 5.853,15.656 15.928,15.656 10.075,0 15.928,-6.808 15.928,-15.656 0,-8.577 -5.853,-15.791 -15.928,-15.791 -10.075,0 -15.928,7.215 -15.928,15.791 z" id="path15" style="fill:#222222"/>
	<path d="M 538.683,318.625 H 513.907 V 205.631 h 24.776 v 112.994 z" id="path17" style="fill:#222222"/>
	<path d="m 622.443,242.388 c -4.901,-4.083 -11.163,-6.807 -17.697,-6.807 -4.902,0 -11.436,2.859 -11.436,8.577 0,5.991 7.215,8.304 11.845,9.803 l 6.806,2.042 c 14.294,4.22 25.321,11.436 25.321,28.045 0,10.21 -2.449,20.691 -10.619,27.636 -8.03,6.807 -18.786,9.666 -29.133,9.666 -12.932,0 -25.595,-4.356 -36.076,-11.71 l 11.436,-21.509 c 6.671,5.854 14.566,10.618 23.688,10.618 6.261,0 12.934,-3.131 12.934,-10.346 0,-7.488 -10.482,-10.075 -16.201,-11.708 -16.746,-4.765 -27.771,-9.122 -27.771,-28.998 0,-20.83 14.839,-34.443 35.395,-34.443 10.347,0 23.008,3.268 32.129,8.44 l -10.621,20.694 z" id="path19" style="fill:#222222"/>
	<path d="m 666.017,256.683 h 0.271 c 4.494,-6.943 12.935,-10.211 21.104,-10.211 20.829,0 35.26,17.426 35.26,37.438 0,20.149 -14.295,37.03 -34.988,37.03 -8.032,0 -16.337,-2.858 -21.646,-8.984 v 41.521 H 641.24 v -104.69 h 24.778 v 7.896 z m -0.818,27.09 c 0,8.849 5.854,15.656 15.927,15.656 10.076,0 15.93,-6.808 15.93,-15.656 0,-8.577 -5.854,-15.791 -15.93,-15.791 -10.073,10e-4 -15.927,7.215 -15.927,15.791 z" id="path21" style="fill:#222222"/>
	<path d="m 713.59,248.787 h 28.591 l 18.648,35.804 18.244,-35.804 h 28.18 l -55.952,104.69 h -27.773 l 23.826,-44.382 -33.764,-60.308 z" id="path23" style="fill:#222222"/>
	<path d="m 816.708,307.462 c 0,7.625 -6.262,13.887 -13.888,13.887 -7.622,0 -13.886,-6.262 -13.886,-13.887 0,-7.623 6.264,-13.886 13.886,-13.886 7.626,0 13.888,6.263 13.888,13.886 z" id="path25" style="fill:#222222"/>
</g>
</svg>