<?xml version="1.0" encoding="UTF-8" standalone="no"?>
<!-- Created with Inkscape (http://www.inkscape.org/) -->

<svg
   xmlns:dc="http://purl.org/dc/elements/1.1/"
   xmlns:cc="http://creativecommons.org/ns#"
   xmlns:rdf="http://www.w3.org/1999/02/22-rdf-syntax-ns#"
   xmlns:svg="http://www.w3.org/2000/svg"
   xmlns="http://www.w3.org/2000/svg"
   xmlns:sodipodi="http://sodipodi.sourceforge.net/DTD/sodipodi-0.dtd"
   xmlns:inkscape="http://www.inkscape.org/namespaces/inkscape"
   width="1000"
   height="355.64499"
   id="svg11902"
   version="1.1"
   inkscape:version="0.48.5 r10040"
   sodipodi:docname="A.svg">
  <defs
     id="defs11904" />
  <sodipodi:namedview
     id="base"
     pagecolor="#ffffff"
     bordercolor="#666666"
     borderopacity="1.0"
     inkscape:pageopacity="0.0"
     inkscape:pageshadow="2"
     inkscape:zoom="0.27993164"
     inkscape:cx="893.91307"
     inkscape:cy="-252.78735"
     inkscape:document-units="px"
     inkscape:current-layer="layer1"
     showgrid="false"
     fit-margin-left="0.5"
     fit-margin-bottom="0.5"
     fit-margin-top="0.5"
     fit-margin-right="0.5"
     inkscape:window-width="1054"
     inkscape:window-height="1016"
     inkscape:window-x="857"
     inkscape:window-y="0"
     inkscape:window-maximized="0" />
  <metadata
     id="metadata11907">
    <rdf:RDF>
      <cc:Work
         rdf:about="">
        <dc:format>image/svg+xml</dc:format>
        <dc:type
           rdf:resource="http://purl.org/dc/dcmitype/StillImage" />
        <dc:title></dc:title>
      </cc:Work>
    </rdf:RDF>
  </metadata>
  <g
     inkscape:label="Layer 1"
     inkscape:groupmode="layer"
     id="layer1"
     transform="translate(-320.54167,13.198133)">
    <path
       d="m 464.53508,247.49655 c 0,80.82912 -35.41948,89.45644 -74.92506,89.45644 l 0,-11.80568 0,-142.13302 0,-20.433 c 37.23498,0 41.77619,24.97421 41.77619,63.11941 l 4.99631,0 0,-132.595505 -4.99631,0 c 0,38.142735 -4.54121,64.479785 -41.77619,64.479785 l 0,-12.71342 0,-152.5758306 c 39.50558,0 71.7467,6.3567144 71.7467,89.0037886 l 4.99386,0 0,-93.997651 -145.30891,0 0,4.9938624 26.79216,0 0,344.6572606 -26.79216,0 0,4.99386 148.48972,0 0,-94.4503 -4.99631,0 z m 193.89447,89.45644 -26.78971,0 0,4.99386 147.57952,0 0,-94.4503 -4.99387,0 c 0,80.82912 -34.51172,89.45644 -74.0173,89.45644 l 0,-11.80568 0,-142.13302 0,-190.7185606 26.78971,0 0,-4.9938624 -95.35806,0 0,4.9938624 26.78971,0 0,344.6572606 z m 279.7199,0 -26.78971,0 0,4.99386 147.57956,0 0,-94.4503 -4.9964,0 c 0,80.82912 -34.5092,89.45644 -74.01726,89.45644 l 0,-11.80568 0,-142.13302 0,-190.7185606 26.79216,0 0,-4.9938624 -95.35806,0 0,4.9938624 26.78971,0 0,344.6572606 z m 376.89595,-89.45644 c 0,80.82912 -35.4195,89.45644 -74.9251,89.45644 l 0,-11.80568 0,-142.13302 0,-20.433 c 37.235,0 41.7762,24.97421 41.7762,63.11941 l 4.9963,0 0,-132.595505 -4.9963,0 c 0,38.142735 -4.5412,64.479785 -41.7762,64.479785 l 0,-12.71342 0,-152.5758306 c 39.5056,0 71.7467,6.3567144 71.7467,89.0037886 l 4.9939,0 0,-93.997651 -145.3089,0 0,4.9938624 26.7921,0 0,344.6572606 -26.7921,0 0,4.99386 148.4897,0 0,-94.4503 -4.9963,0 z"
       style="fill:#142237;fill-opacity:1;fill-rule:nonzero;stroke:none"
       id="path14375"
       inkscape:connector-curvature="0" />
  </g>
</svg>
