<svg viewBox="211 19 50 42">
    <polygon
        points="226.25 32.623 227.75 32.623 227.75 26.623 226.25 26.623"
    />
    <path
        d="M247.25,48.3732 C246.423,48.3732 245.75,47.7002 245.75,46.8732 C245.75,46.0462 246.423,
        45.3732 247.25,45.3732 C248.077,45.3732 248.75,46.0462 248.75,46.8732 C248.75,
        47.7002 248.077,48.3732 247.25,48.3732 L247.25,48.3732 Z M251,44.4042 L251,
        41.6762 L248.25,39.8422 L246.123,44.0962 C245.026,44.5422 244.25,45.6152 244.25,
        46.8732 C244.25,47.5532 244.485,48.1732 244.866,48.6762 L244.352,55.8732 L248.863,
        55.8732 L249.353,49.0102 C249.906,48.4652 250.25,47.7102 250.25,46.8732 C250.25,
        46.6112 250.206,46.3612 250.143,46.1192 L251,44.4042 Z"
    />
    <polygon
        points="250.6725 33.3732 259.2495 33.3732 259.2495 24.3732 251.7495 21.8982 250.2495
        19.8732 239.7495 19.8732 238.2495 21.8982 232.2495 24.3732 232.2495 33.3732 239.3275
        33.3732"
    />
    <path
        d="M218.75,32.6232 C217.507,32.6232 216.5,31.6162 216.5,30.3732 C216.5,29.1302 217.507,
        28.1232 218.75,28.1232 C219.993,28.1232 221,29.1302 221,30.3732 C221,31.6162 219.993,
        32.6232 218.75,32.6232 L218.75,32.6232 Z M223.25,33.3732 L224.75,33.3732 L224.75,
        25.8732 L218.75,25.8732 L214.25,28.8732 L214.25,31.1232 L211.625,31.1232 C211.418,
        31.1232 211.25,31.2912 211.25,31.4982 C211.25,31.7052 211.418,31.8732 211.625,
        31.8732 L214.25,31.8732 L214.25,33.3732 L212,33.3732 C211.586,33.3732 211.25,
        33.7092 211.25,34.1232 C211.25,34.5372 211.586,34.8732 212,34.8732 L221.75,
        34.8732 L223.25,33.3732 Z"
    />
    <path
        d="M253.25,46.8732 C253.25,46.0462 253.923,45.3732 254.75,45.3732 C255.577,45.3732 256.25,
        46.0462 256.25,46.8732 C256.25,47.7002 255.577,48.3732 254.75,48.3732 C253.923,
        48.3732 253.25,47.7002 253.25,46.8732 L253.25,46.8732 Z M254.75,36.3732 C255.577,
        36.3732 256.25,37.0462 256.25,37.8732 C256.25,38.7002 255.577,39.3732 254.75,
        39.3732 C253.923,39.3732 253.25,38.7002 253.25,37.8732 C253.25,37.0462 253.923,
        36.3732 254.75,36.3732 L254.75,36.3732 Z M235.25,39.3732 C234.423,39.3732 233.75,
        38.7002 233.75,37.8732 C233.75,37.0462 234.423,36.3732 235.25,36.3732 C236.077,
        36.3732 236.75,37.0462 236.75,37.8732 C236.75,38.7002 236.077,39.3732 235.25,
        39.3732 L235.25,39.3732 Z M232.25,48.3732 C231.423,48.3732 230.75,47.7002 230.75,
        46.8732 C230.75,46.0462 231.423,45.3732 232.25,45.3732 C233.077,45.3732 233.75,
        46.0462 233.75,46.8732 C233.75,47.7002 233.077,48.3732 232.25,48.3732 L232.25,
        48.3732 Z M258.98,55.8732 L257.362,48.3222 C257.602,47.8912 257.75,47.4012 257.75,
        46.8732 C257.75,46.1172 257.461,45.4352 257,44.9082 L257,41.2482 L258.821,34.8732 L235.25,
        34.8732 C233.593,34.8732 232.25,36.2162 232.25,37.8732 C232.25,38.2892 232.335,
        38.6852 232.488,39.0452 L230.738,44.2962 C229.852,44.8172 229.25,45.7702 229.25,
        46.8732 C229.25,47.2642 229.33,47.6352 229.466,47.9782 L226.646,55.8732 L231.425,
        55.8732 L232.469,52.9482 L236.327,54.8082 L238.278,50.7522 L234.404,48.9282 C234.921,
        48.3922 235.25,47.6772 235.25,46.8732 C235.25,46.4572 235.165,46.0612 235.012,
        45.7012 L236.438,41.4222 L240.875,37.8732 L248,37.8732 L252.5,40.8732 L252.5,
        44.6702 L252.5,44.9082 C252.039,45.4352 251.75,46.1172 251.75,46.8732 C251.75,
        47.8802 252.25,48.7652 253.011,49.3102 L254.387,55.8732 L258.98,55.8732 Z"
    />
    <polygon
        points="229.25 32.623 230.75 32.623 230.75 26.623 229.25 26.623"
    />
    <polygon
        points="240.8468 50.6015 239.7648 51.1215 237.3258 56.1905 237.5958 57.3605 239.6228
        58.3355 242.8748 51.5765"
    />
    <polygon
        points="259.8125 57.3732 254.1875 57.3732 253.2505 58.1232 253.2505 60.3732 260.7495
        60.3732 260.7495 58.1232"
    />
    <polygon
        points="243.6875 57.3732 242.7505 58.1232 242.7505 60.3732 250.2495 60.3732 250.2495
        58.1232 249.3125 57.3732"
    />
    <polygon
        points="225.6875 57.3732 224.7505 58.1232 224.7505 60.3732 232.2495 60.3732 232.2495
        58.1232 231.3125 57.3732"
    />
    <path
        d="M223.25,46.8732 C223.25,46.0462 223.923,45.3732 224.75,45.3732 C225.577,45.3732 226.25,
        46.0462 226.25,46.8732 C226.25,47.7002 225.577,48.3732 224.75,48.3732 C223.923,
        48.3732 223.25,47.7002 223.25,46.8732 M225.569,49.7452 L227.001,50.4192 L227.884,
        47.9492 C227.795,47.5952 227.75,47.2352 227.75,46.8732 C227.75,45.4982 228.398,
        44.1952 229.473,43.3482 L231.099,38.4682 L224.789,43.8772 C224.775,43.8772 224.763,
        43.8732 224.75,43.8732 C223.093,43.8732 221.75,45.2162 221.75,46.8732 C221.75,
        48.5302 223.093,49.8732 224.75,49.8732 C225.036,49.8732 225.307,49.8202 225.569,49.7452"
    />
</svg>