<svg viewBox="99 205 42 43">
    <path
        d="M112.5,209.75 C115.814,209.75 118.5,212.436 118.5,215.75 C118.5,219.063 115.814,
        221.75 112.5,221.75 C109.186,221.75 106.5,219.063 106.5,215.75 C106.5,212.436 109.186,
        209.75 112.5,209.75 L112.5,209.75 Z M140.962,225.5 C140.916,224.218 140.77,
        222.963 140.505,221.75 L132,221.75 L132,220.25 L135,220.25 L135,218.75 L129,218.75 L129,
        217.25 L133.5,217.25 L133.5,215.75 L132,215.75 L132,214.25 L129,214.25 L129,212.75 L130.5,
        212.75 L130.5,211.25 L127.5,211.25 L127.5,209.75 L129,209.75 L129,208.25 L129,
        207.298 C126.27,205.998 123.226,205.25 120,205.25 C108.655,205.25 99.436,214.251 99.038,
        225.5 L140.962,225.5 Z"
    />
    <path
        d="M124.5,245.75 L123,245.75 L123,244.25 L127.5,244.25 L127.5,242.75 L129,242.75 L129,
        241.25 L133.5,241.25 L133.5,239.75 L135,239.75 L135,238.25 L132,238.25 L132,236.75 L127.5,
        236.75 L127.5,235.25 L130.5,235.25 L130.5,233.75 L136.5,233.75 L136.5,232.25 L133.5,
        232.25 L133.5,230.75 L140.505,230.75 C140.77,229.537 140.916,228.282 140.962,227 L99.038,
        227 C99.436,238.249 108.655,247.25 120,247.25 C121.547,247.25 123.05,247.071 124.5,
        246.755 L124.5,245.75 Z"
    />
</svg>