<svg viewBox="300 15 40 42">
    <path d="M332,46.5 C331.585,46.5 331.25,46.165 331.25,45.75 C331.25,43.499 328.78,41.492 325.239,40.468 C325.304,40.225 325.357,39.986 325.357,39.75 C325.357,39.45 325.302,39.164 325.215,38.888 C329.692,40.04 332.75,42.645 332.75,45.75 C332.75,46.165 332.415,46.5 332,46.5 M325.978,48.408 C325.922,48.63 325.723,48.776 325.507,48.775 L316.134,48.775 L315.698,48.775 C314.753,48.771 313.99,47.95 313.994,46.996 C313.998,46.041 314.768,45.271 315.713,45.275 C315.856,45.276 316.002,45.297 316.134,45.33 L325.507,47.779 L325.63,47.811 C325.89,47.879 326.045,48.146 325.978,48.408 M308.75,45.75 C308.75,46.165 308.415,46.5 308,46.5 C307.585,46.5 307.25,46.165 307.25,45.75 C307.25,42.645 310.308,40.04 314.785,38.888 C314.698,39.164 314.643,39.45 314.643,39.75 C314.643,39.986 314.696,40.225 314.761,40.468 C311.22,41.492 308.75,43.499 308.75,45.75 M314.194,33.775 L316.806,33.775 C316.926,33.991 317,34.236 317,34.5 C317,35.328 316.328,36 315.5,36 C314.672,36 314,35.328 314,34.5 C314,34.236 314.074,33.991 314.194,33.775 M320,37.5 C322.13,37.5 323.857,38.507 323.857,39.75 C323.857,39.893 323.829,40.032 323.785,40.167 C323.603,40.111 323.414,40.072 323.214,40.072 C322.197,40.072 321.373,40.861 321.3,41.86 C320.892,41.945 320.459,42 320,42 C319.541,42 319.108,41.945 318.7,41.86 C318.627,40.861 317.803,40.072 316.786,40.072 C316.586,40.072 316.397,40.111 316.215,40.167 C316.171,40.032 316.143,39.893 316.143,39.75 C316.143,38.507 317.87,37.5 320,37.5 M323.194,33.775 L325.806,33.775 C325.926,33.991 326,34.236 326,34.5 C326,35.328 325.328,36 324.5,36 C323.672,36 323,35.328 323,34.5 C323,34.236 323.074,33.991 323.194,33.775 M334.175,24.887 C328.997,27.441 326.333,30.573 326.29,30.627 C326.215,30.716 326.108,30.763 326,30.763 C325.916,30.763 325.832,30.735 325.761,30.678 C325.602,30.546 325.578,30.31 325.71,30.151 C325.755,30.095 328.498,26.861 333.825,24.227 C332.995,22.718 332.042,21.322 330.953,20.089 C325.961,24.297 323.386,30.435 323.347,30.529 C323.333,30.564 323.303,30.583 323.281,30.611 C323.263,30.633 323.253,30.654 323.231,30.672 C323.164,30.726 323.087,30.763 323,30.763 L322.978,30.763 C322.972,30.763 322.969,30.757 322.963,30.756 C322.928,30.752 322.893,30.749 322.859,30.735 C322.831,30.724 322.823,30.693 322.799,30.676 C322.757,30.647 322.726,30.62 322.699,30.577 C322.673,30.536 322.663,30.498 322.654,30.45 C322.648,30.42 322.623,30.398 322.625,30.366 C322.656,29.847 323.198,21.339 325.376,16.031 C323.77,15.379 321.992,15 320,15 C318.008,15 316.23,15.379 314.624,16.031 C316.802,21.34 317.344,29.847 317.375,30.366 C317.377,30.398 317.352,30.42 317.346,30.45 C317.337,30.498 317.327,30.536 317.301,30.577 C317.274,30.62 317.243,30.647 317.201,30.676 C317.177,30.693 317.169,30.724 317.141,30.735 C317.107,30.749 317.072,30.752 317.037,30.756 C317.031,30.757 317.028,30.763 317.022,30.763 L317,30.763 C316.913,30.763 316.836,30.726 316.769,30.672 C316.747,30.654 316.737,30.633 316.719,30.611 C316.697,30.583 316.667,30.564 316.653,30.529 C316.614,30.435 314.039,24.297 309.047,20.089 C307.958,21.322 307.005,22.718 306.175,24.227 C311.502,26.861 314.245,30.095 314.29,30.151 C314.422,30.31 314.398,30.546 314.239,30.678 C314.168,30.735 314.084,30.763 314,30.763 C313.892,30.763 313.785,30.716 313.71,30.627 C313.667,30.573 311.004,27.441 305.825,24.887 C300.507,35.179 300.5,49.814 300.5,49.814 C300.5,51.297 301.747,52.5 303.286,52.5 L309.5,52.5 L313.226,55.645 L315.935,54.29 L320,57 L324.065,54.29 L326.774,55.645 L330.5,52.5 L336.714,52.5 C338.253,52.5 339.5,51.297 339.5,49.814 C339.5,49.814 339.493,35.179 334.175,24.887" fill-rule="evenodd"></path>
</svg>