<svg viewBox="0 0 330 65"><path d="M19.9 24.7c0-9.7-1.2-13.4-3.8-13.4-2.2 0-4.4 1.5-4.4 21.4 0 19.3 1.1 21.4 4.4 21.4 3.5 0 4.3-5.4 4.4-13.9l8.9.4c0 10.2-1.5 22.6-13.7 22.6C4.5 63.3.8 52.1.8 32.8.8 10.4 7.4 2.3 15.7 2.3c12.1 0 13.6 11.4 13.6 22.1l-9.4.3z"/><path d="M40.3 39c0 12.7 1.5 15.3 3.9 15.3s3.9-2.6 3.9-15.3V26.6c0-12.7-1.5-15.3-3.9-15.3s-3.9 2.6-3.9 15.3V39zm3.8-36.7c9.3 0 15.3 7.3 15.3 30.5s-6.1 30.5-15.3 30.5c-9.3 0-15.3-7.3-15.3-30.5s6-30.5 15.3-30.5"/><path d="M68.2 45.2c0 3.3 0 9.1 4.5 9.1 3.5 0 4.7-3.3 4.7-5.7 0-10.5-19-12.9-19-30.3 0-8.8 4.7-16 13.6-16 9.4 0 13.1 7.3 13.3 17.9h-9.4c0-3.3 0-8.8-4.2-8.8-2.5 0-4 2.1-4 5.4 0 10 19.1 13.4 19.1 30.4 0 9-5 16.2-14.4 16.2-11.2 0-13.5-10.1-13.5-18.1h9.3z"/><path fill="none" d="M.8 2.3h328.4v61H.8z"/><path d="M84.9 3.5h14l4.7 30.1h.2l4.9-30.1h13.6v58.7H113V19.1h-.2l-7.1 43.1h-5.8l-7-43.1h-.2v43.1h-7.8zM133.8 39c0 12.7 1.5 15.3 3.9 15.3s3.9-2.6 3.9-15.3V26.6c0-12.7-1.5-15.3-3.9-15.3s-3.9 2.6-3.9 15.3V39zm3.9-36.7c9.3 0 15.3 7.3 15.3 30.5s-6.1 30.5-15.3 30.5c-9.3 0-15.3-7.3-15.3-30.5s6-30.5 15.3-30.5"/><path d="M163.4 30.1h.9c4.3 0 6.6-1.7 6.6-8.8 0-8.5-3.2-8.7-6.7-8.7h-.8v17.5zM152.8 3.5h10.5c11.9 0 18.1 4.9 18.1 17.6 0 10.6-4 17.6-13.9 17.6h-4.2v23.5h-10.5V3.5zM192.1 39c0 12.7 1.5 15.3 3.9 15.3s3.9-2.6 3.9-15.3V26.6c0-12.7-1.5-15.3-3.9-15.3s-3.9 2.6-3.9 15.3V39zM196 2.3c9.3 0 15.3 7.3 15.3 30.5s-6.1 30.5-15.3 30.5c-9.3 0-15.3-7.3-15.3-30.5s6-30.5 15.3-30.5m15.6 1.2h10.5v49.6h13.3v9.1h-23.8zm25.5 0h10.5v58.7h-10.5zm21.3 9h-9v-9H278v9h-9.1v49.7h-10.5z"/><path d="M285.8 12.5h-.2l-3.3 28h6.5l-3-28zm-6.7-9h15.2l7.1 58.7h-10.1l-1.5-13h-8.5l-1.5 13H271l8.1-58.7z"/><path d="M300.8 3.5h10.3l9.6 31h.1v-31h8.4v58.7h-8.1l-11.3-35.6h-.1v35.6h-8.9z"/></svg>