<svg viewBox="0 0 140 30.999999"><path d="M0 2.17h7.875c5.948 0 10.849 4.71 10.849 10.76 0 6.053-4.93 10.763-10.85 10.763H0V2.169zm5.552 16.784h1.246c3.314 0 6.147-1.827 6.147-6.023 0-3.854-2.521-6.023-6.09-6.023H5.552v12.046zM25.038 3.425c0 1.599-1.303 2.912-2.889 2.912-1.586 0-2.89-1.313-2.89-2.912 0-1.598 1.304-2.912 2.89-2.912s2.89 1.314 2.89 2.912zm-.311 20.267H19.57V9.05h5.156v14.643zm17.538-1.427c0 6.223-3.06 8.735-8.413 8.735-3.343 0-7.818-1.742-8.271-5.595h5.778c.142.513.51.885.963 1.113.454.228.992.343 1.473.343 2.776 0 3.314-1.827 3.314-4.197v-.685c-1.33 1.342-2.69 1.998-4.617 1.998-4.249 0-7.166-3.254-7.166-7.479 0-4.281 3.003-7.935 7.45-7.935 1.699 0 3.257.571 4.277 2.027h.056V9.048h5.156v13.217zM30.65 16.271c0 1.855 1.218 3.282 3.314 3.282s3.314-1.427 3.314-3.282c0-1.799-1.218-3.311-3.314-3.311s-3.314 1.512-3.314 3.31zM49.02 3.425c0 1.599-1.302 2.912-2.889 2.912-1.586 0-2.889-1.313-2.889-2.912 0-1.598 1.303-2.912 2.89-2.912 1.586 0 2.889 1.314 2.889 2.912zm-.31 20.267h-5.156V9.05h5.155v14.643zm8.27 0h-5.156V13.33h-1.67V9.05h1.67V4.653h5.156v4.396h2.917v4.281H56.98v10.362z"/><path d="M75.622 23.692h-5.155v-1.627h-.056c-.907 1.456-2.692 2.113-4.391 2.113-4.305 0-7.336-3.626-7.336-7.822s2.974-7.793 7.28-7.793c1.67 0 3.427.628 4.503 1.913V9.049h5.155v14.643zM64.01 16.385c0 1.855 1.217 3.282 3.314 3.282 2.096 0 3.314-1.427 3.314-3.282 0-1.799-1.218-3.311-3.314-3.311-2.097 0-3.314 1.512-3.314 3.31zm18.143 7.307h-5.155V0h5.155v23.692zM99.58 7.707c-1.02-.856-2.322-1.427-3.682-1.427-1.02 0-2.38.6-2.38 1.798 0 1.256 1.502 1.741 2.465 2.056l1.416.428c2.974.885 5.269 2.398 5.269 5.88 0 2.141-.51 4.339-2.21 5.795-1.67 1.427-3.909 2.027-6.061 2.027-2.691 0-5.326-.914-7.507-2.456l2.38-4.51c1.388 1.228 3.03 2.227 4.929 2.227 1.302 0 2.69-.657 2.69-2.17 0-1.57-2.18-2.112-3.37-2.454-3.484-1-5.778-1.913-5.778-6.08 0-4.368 3.087-7.223 7.364-7.223 2.153 0 4.787.686 6.685 1.77l-2.21 4.34zm9.066 2.997h.057c.935-1.455 2.691-2.14 4.39-2.14 4.335 0 7.337 3.653 7.337 7.85 0 4.224-2.974 7.764-7.28 7.764-1.67 0-3.399-.6-4.503-1.884V31h-5.156V9.049h5.156v1.655zm-.17 5.68c0 1.856 1.218 3.283 3.314 3.283 2.097 0 3.315-1.427 3.315-3.282 0-1.799-1.218-3.311-3.315-3.311-2.096 0-3.314 1.512-3.314 3.31z"/><path d="M118.545 9.049h5.949l3.88 7.507 3.795-7.507h5.864L126.39 31h-5.779l4.958-9.306-7.025-12.645zM140 21.352c0 1.598-1.303 2.911-2.89 2.911-1.585 0-2.889-1.313-2.889-2.911 0-1.599 1.304-2.912 2.89-2.912S140 19.753 140 21.352z"/></svg>