<svg viewBox="0 0 1000 355"><path d="M143.993 260.695c0 80.829-35.42 89.456-74.925 89.456V175.78c37.235 0 41.777 24.975 41.777 63.12h4.996V106.303h-4.996c0 38.143-4.542 64.48-41.777 64.48V5.494c39.506 0 71.747 6.357 71.747 89.004h4.994V.5H.5v4.994h26.792V350.15H.5v4.994h148.49v-94.45h-4.997zm193.895 89.456h-26.79v4.994h147.58v-94.45h-4.994c0 80.829-34.512 89.456-74.017 89.456V5.494h26.79V.5h-95.359v4.994h26.79V350.15zm279.72 0h-26.79v4.994h147.58v-94.45H733.4c0 80.829-34.509 89.456-74.017 89.456V5.494h26.792V.5h-95.358v4.994h26.79V350.15zm376.896-89.456c0 80.829-35.42 89.456-74.925 89.456V175.78c37.235 0 41.776 24.975 41.776 63.12h4.996V106.303h-4.996c0 38.143-4.541 64.48-41.776 64.48V5.494c39.505 0 71.746 6.357 71.746 89.004h4.994V.5H851.01v4.994h26.792V350.15H851.01v4.994H999.5v-94.45h-4.996z"/></svg>