<svg viewBox="0 0 744 169.72">
  <g
     transform="translate(-116.97948,-19.0671)">
    <path
       d="M 829.27694,64.935203 C 821.44469,64.935203 815.19649,58.669386 815.19649,50.969134 C 815.19649,42.987257 821.44469,36.853451 829.27694,36.853451 C 837.02122,36.853451 843.35743,42.987257 843.35743,50.969134 C 843.35743,58.669386 837.02122,64.935203 829.27694,64.935203 z M 829.27694,38.560708 C 822.58873,38.560708 817.04455,44.122495 817.04455,50.969134 C 817.04455,57.525345 822.58873,63.227944 829.27694,63.227944 C 836.14118,63.227944 841.50936,57.525345 841.50936,50.969134 C 841.50936,44.122495 835.96518,38.560708 829.27694,38.560708 z M 832.70907,58.950995 C 832.26906,56.953324 832.09305,53.820434 831.74104,52.966804 C 831.03701,51.68195 829.98097,51.68195 829.10095,51.68195 C 828.04492,51.68195 827.60491,51.68195 826.72486,51.68195 L 826.72486,58.950995 L 823.99676,58.950995 L 823.99676,42.27444 C 824.96482,42.27444 828.57294,42.27444 829.71698,42.27444 C 832.26906,42.27444 835.26115,43.550474 835.26115,46.551373 C 835.26115,48.830652 833.85312,50.115506 831.82904,50.53791 C 832.53306,50.828322 833.4131,51.109931 833.6771,51.391539 C 834.73314,52.253972 834.73314,53.820434 834.82115,55.38688 C 835.26115,57.666158 835.52518,58.378975 835.70117,58.950995 C 834.82115,58.950995 833.58909,58.950995 832.70907,58.950995 z M 829.27694,44.553719 C 828.74893,44.553719 827.25288,44.553719 826.72486,44.553719 L 826.72486,49.68428 C 827.25288,49.68428 828.74893,49.68428 829.10095,49.68428 C 831.12502,49.68428 832.44506,48.971464 832.44506,46.973793 C 832.44506,45.266536 831.38902,44.553719 829.27694,44.553719 z M 787.65154,49.825093 L 787.65154,90.45605 L 776.38718,90.45605 L 776.38718,49.825093 L 759.2794,49.825093 L 759.2794,38.851121 L 804.90014,38.851121 L 804.90014,49.825093 L 787.65154,49.825093 z M 733.04571,49.825093 L 733.04571,90.45605 L 721.78134,90.45605 L 721.78134,49.825093 L 704.67357,49.825093 L 704.67357,38.851121 L 750.3031,38.851121 L 750.3031,49.825093 L 733.04571,49.825093 z M 799.79596,167.87225 C 796.36385,170.58274 792.66772,170.58274 789.93963,170.58274 C 785.53948,170.58274 753.43601,170.58274 753.43601,170.58274 L 753.43601,118.96901 C 753.43601,118.96901 775.77116,118.96901 789.93963,118.96901 C 792.93172,118.96901 797.24387,119.40024 799.79596,121.67951 C 802.34806,123.95877 805.60416,126.52847 805.60416,143.63624 C 805.60416,160.74402 803.58008,165.02095 799.79596,167.87225 z M 655.63832,90.45605 C 650.93016,90.45605 646.51242,87.745563 646.51242,82.755798 C 646.51242,62.655924 646.51242,54.814859 646.51242,46.551373 C 646.51242,42.124825 650.21735,38.851121 655.63832,38.851121 C 658.77123,38.851121 694.27162,38.851121 694.27162,38.851121 L 694.27162,49.825093 L 657.77678,49.825093 L 657.77678,58.950995 L 689.70426,58.950995 L 689.70426,68.78973 L 657.77678,68.78973 L 657.77678,79.482094 L 695.69727,79.482094 L 695.69727,90.45605 C 695.69727,90.45605 665.61785,90.45605 655.63832,90.45605 z M 735.89702,154.32861 C 738.32589,156.03586 739.89235,158.74635 739.89235,161.45684 C 739.89235,166.4466 739.89235,170.58274 739.89235,170.58274 L 728.76877,170.58274 C 728.76877,170.58274 728.76877,165.59298 728.76877,162.74168 C 728.76877,159.89039 726.3487,156.18546 720.5053,156.18546 C 713.22746,156.18546 701.54067,156.18546 701.54067,156.18546 L 701.54067,170.58274 L 690.27628,170.58274 L 690.27628,118.96901 C 690.27628,118.96901 720.64611,118.96901 726.6303,118.96901 C 735.61542,118.96901 742.03083,127.38209 742.03083,138.64648 C 742.03083,145.91552 739.89235,151.61811 735.89702,154.32861 z M 606.02226,90.45605 C 601.3141,90.45605 596.89634,87.745563 596.89634,82.755798 C 596.89634,62.655924 596.89634,38.851121 596.89634,38.851121 L 608.16073,38.851121 L 608.16073,79.482094 L 640.66903,79.482094 L 640.66903,90.45605 C 640.66903,90.45605 616.00179,90.45605 606.02226,90.45605 z M 669.8948,170.58274 L 665.32744,160.74402 L 635.67925,160.74402 L 631.25271,170.58274 L 622.27641,170.58274 L 622.27641,163.59531 L 642.09468,118.96901 C 642.09468,118.96901 650.78935,118.96901 652.4966,118.96901 C 657.62718,118.96901 659.91527,120.82589 661.48172,124.39 C 662.61695,126.81007 681.86319,170.58274 681.86319,170.58274 L 669.8948,170.58274 z M 571.23467,90.45605 C 571.23467,90.45605 564.67847,90.45605 562.24958,90.45605 C 559.97031,90.45605 556.69659,88.317584 555.55257,84.47186 C 554.55812,80.476519 547.7115,53.961229 547.7115,53.961229 L 537.73195,90.45605 C 534.59905,90.45605 531.74776,90.45605 529.17807,90.45605 C 526.60838,90.45605 523.61629,88.748791 521.76821,83.187006 C 520.05217,77.766032 507.93416,38.851121 507.93416,38.851121 L 519.62975,38.851121 L 530.46291,74.492312 L 541.57769,38.851121 L 554.12692,38.851121 L 565.10088,74.492312 L 576.50606,38.851121 L 588.48327,38.851121 L 571.23467,90.45605 z M 595.6115,143.20504 L 615.71138,163.59531 L 615.71138,170.58274 L 607.30709,170.58274 L 585.63197,148.76683 L 578.36292,148.76683 L 578.36292,170.58274 L 567.09855,170.58274 L 567.09855,118.96901 L 578.36292,118.96901 L 578.36292,137.79284 L 585.63197,137.79284 L 604.73741,118.96901 L 619.98832,118.96901 L 595.6115,143.20504 z M 460.74697,90.45605 C 455.89801,90.45605 451.62106,87.745563 451.62106,82.755798 C 451.62106,62.655924 451.62106,54.814859 451.62106,46.551373 C 451.62106,42.124825 455.18519,38.851121 460.74697,38.851121 C 463.87989,38.851121 499.38027,38.851121 499.38027,38.851121 L 499.38027,49.825093 L 462.88544,49.825093 L 462.88544,58.950995 L 494.82172,58.950995 L 494.82172,68.78973 L 462.88544,68.78973 L 462.88544,79.482094 L 500.80593,79.482094 L 500.80593,90.45605 C 500.80593,90.45605 470.7265,90.45605 460.74697,90.45605 z M 553.69569,166.4466 C 549.84996,170.29234 547.28027,171.00516 530.74452,171.00516 C 514.78078,171.00516 511.9295,170.72356 507.93416,166.4466 C 504.22922,162.60088 503.51642,156.32627 503.51642,144.63067 C 503.51642,133.3751 504.22922,127.10049 507.93416,123.24596 C 511.9295,118.96901 514.78078,118.6874 530.74452,118.6874 C 547.28027,118.6874 549.84996,119.40024 553.69569,123.24596 C 555.41176,124.96202 556.40618,127.95411 556.40618,131.23662 C 556.40618,131.94945 556.40618,133.65672 556.40618,134.51034 L 545.57302,134.51034 C 545.57302,134.51034 545.43222,131.37743 544.57859,130.23339 C 543.57535,128.94856 541.29609,128.38533 530.60372,128.38533 C 519.33933,128.38533 517.63208,128.52614 516.48803,129.95178 C 515.34401,131.23662 514.92159,134.08792 514.92159,144.63067 C 514.92159,155.32303 515.34401,158.17433 516.48803,159.45917 C 517.63208,160.88482 519.33933,161.02564 530.60372,161.02564 C 541.29609,161.02564 543.57535,160.46242 544.57859,159.17756 C 545.43222,158.03352 545.2914,156.46708 545.2914,154.90063 L 556.40618,154.90063 C 556.40618,155.75426 556.40618,157.75192 556.40618,158.46475 C 556.40618,161.73844 555.41176,164.73935 553.69569,166.4466 z M 427.24425,90.45605 L 427.24425,68.78973 L 396.0208,68.78973 L 396.0208,90.45605 L 384.75641,90.45605 L 384.75641,38.851121 L 396.0208,38.851121 L 396.0208,58.950995 L 427.24425,58.950995 L 427.24425,38.851121 L 438.50864,38.851121 L 438.50864,90.45605 L 427.24425,90.45605 z M 485.97743,170.58274 L 481.70047,160.74402 L 451.76186,160.74402 L 447.34412,170.58274 L 435.50772,170.58274 L 458.03649,118.96901 C 458.03649,118.96901 466.87198,118.96901 468.72883,118.96901 C 473.71861,118.96901 475.99788,120.82589 477.71394,124.39 C 478.84917,126.81007 498.09542,170.58274 498.09542,170.58274 L 485.97743,170.58274 z M 423.38972,155.89505 C 415.83906,155.89505 396.0208,155.89505 396.0208,155.89505 L 396.0208,170.58274 L 384.75641,170.58274 L 384.75641,118.96901 C 384.75641,118.96901 416.12067,118.96901 422.11367,118.96901 C 431.08997,118.96901 436.22055,126.23805 436.22055,137.65204 C 436.22055,148.05398 431.08997,155.89505 423.38972,155.89505 z M 334.42751,170.58274 C 326.30485,170.58274 268.2757,170.58274 247.1814,170.58274 L 250.45511,161.59766 C 288.09397,159.31837 304.63853,127.95411 304.63853,103.71811 C 304.63853,78.056445 284.10743,48.540257 246.75017,47.827423 L 249.89189,38.851121 C 270.56378,38.851121 329.58737,38.851121 336.14358,38.851121 C 342.98141,38.851121 349.39684,45.266536 349.39684,51.250742 C 349.39684,59.945437 349.39684,136.50799 349.39684,152.33094 C 349.39684,164.16733 344.69748,170.58274 334.42751,170.58274 z M 243.75808,93.597761 C 242.90444,96.158648 230.92725,129.81098 230.92725,129.81098 L 216.95237,129.81098 L 232.3529,86.46953 L 224.65264,86.46953 L 209.26093,129.81098 L 195.71727,129.81098 L 228.07595,38.851121 L 241.61961,38.851121 L 227.36313,78.910073 C 227.36313,78.910073 233.63774,78.910073 237.48348,78.910073 C 242.33243,78.910073 245.75575,82.474189 245.75575,86.610325 C 245.75575,88.607996 244.3301,92.022512 243.75808,93.597761 z M 288.94759,93.448161 C 288.09397,96.017835 280.1121,118.5466 278.68645,122.39233 C 277.26081,126.23805 275.26314,131.79983 268.70693,131.79983 C 262.0099,131.79983 256.58891,131.79983 253.456,131.79983 L 239.48114,170.58274 L 225.50626,170.58274 L 258.15536,78.910073 C 258.15536,78.910073 278.82725,78.910073 282.68179,78.910073 C 287.38115,78.910073 290.94526,82.474189 290.94526,86.610325 C 290.94526,88.317584 289.95084,90.746461 288.94759,93.448161 z M 217.95561,170.58274 C 196.9933,170.58274 157.78799,170.58274 149.66532,170.58274 C 139.39537,170.58274 134.69601,164.16733 134.69601,152.33094 C 134.69601,136.50799 134.69601,59.945437 134.69601,51.250742 C 134.69601,45.266536 141.11142,38.851121 147.94927,38.851121 C 154.79588,38.851121 199.7038,38.851121 220.3757,38.851121 L 217.38359,47.686627 C 195.71727,56.240508 179.0319,78.056445 179.0319,103.71811 C 179.0319,127.95411 193.28838,151.4773 221.37893,160.74402 L 217.95561,170.58274 z M 792.0517,130.37419 C 790.64366,129.09816 788.79559,128.66694 786.68351,128.66694 C 784.39545,128.66694 764.68279,128.66694 764.68279,128.66694 L 764.68279,160.172 C 773.21907,160.172 778.23524,160.172 786.68351,160.172 C 788.6196,160.172 790.64366,159.89039 791.96369,158.74635 C 793.63575,157.0391 794.51578,152.62135 794.51578,143.91785 C 794.51578,135.36397 794.25178,131.94945 792.0517,130.37419 z M 724.35103,129.52056 C 720.92771,129.52056 701.54067,129.52056 701.54067,129.52056 L 701.54067,145.91552 C 708.6689,145.91552 720.92771,145.91552 723.9286,145.91552 C 728.05595,145.91552 730.33524,141.77938 730.33524,137.79284 C 730.33524,133.65672 727.63354,129.52056 724.35103,129.52056 z M 650.64855,126.81007 L 640.09701,150.62368 L 660.90969,150.62368 L 650.64855,126.81007 z M 466.73118,126.23805 L 456.17961,150.62368 L 477.28273,150.62368 L 466.73118,126.23805 z M 419.40318,129.37976 C 415.97986,129.37976 396.0208,129.37976 396.0208,129.37976 L 396.0208,145.34351 C 405.1467,145.34351 416.55188,145.34351 419.40318,145.34351 C 422.67689,145.34351 424.81537,141.49778 424.81537,137.36163 C 424.81537,133.3751 422.67689,129.37976 419.40318,129.37976 z M 269.56055,86.46953 L 256.1577,124.24918 L 263.85795,124.24918 L 277.26081,86.46953 L 269.56055,86.46953" />
  </g>
</svg>
