<svg viewBox="0 0 25 15" >
        <g transform="translate(-1166.000000, -76.000000)">
            <g transform="translate(74.000000, 69.000000)">
                <path d="M1092,8.5 C1092,7.67157288 1092.66869,7 1093.50756,7 L1115.49244,7 C1116.32504,7 1117,7.66579723 1117,8.5 C1117,9.32842712 1116.33131,10 1115.49244,10 L1093.50756,10 C1092.67496,10 1092,9.33420277 1092,8.5 Z M1092,14.5 C1092,13.6715729 1092.66544,13 1093.50325,13 L1110.49675,13 C1111.32697,13 1112,13.6657972 1112,14.5 C1112,15.3284271 1111.33456,16 1110.49675,16 L1093.50325,16 C1092.67303,16 1092,15.3342028 1092,14.5 Z M1092,20.5 C1092,19.6715729 1092.66869,19 1093.50756,19 L1115.49244,19 C1116.32504,19 1117,19.6657972 1117,20.5 C1117,21.3284271 1116.33131,22 1115.49244,22 L1093.50756,22 C1092.67496,22 1092,21.3342028 1092,20.5 Z"></path>
            </g>
        </g>
    </g>
</svg>